<?xml version="1.0" encoding="UTF-8" standalone="no"?>
<svg width="24px" height="20px" viewBox="0 0 24 20" version="1.1" xmlns="http://www.w3.org/2000/svg" xmlns:xlink="http://www.w3.org/1999/xlink">
    <!-- Generator: Sketch 44.1 (41455) - http://www.bohemiancoding.com/sketch -->
    <title>text 1</title>
    <desc>Created with Sketch.</desc>
    <defs></defs>
    <g id="Page-2-Copy" stroke="none" stroke-width="1" fill="none" fill-rule="evenodd">
        <g id="191" stroke="#979797" fill="#95909E">
            <path d="M1.00069463,0 C0.448026248,0 0,0.443864822 0,1 C0,1.55228475 0.44746922,2 1.00069463,2 L22.9993054,2 C23.5519738,2 24,1.55613518 24,1 C24,0.44771525 23.5525308,0 22.9993054,0 L1.00069463,0 L1.00069463,0 Z M1.00069463,12 C0.448026248,12 0,12.4438648 0,13 C0,13.5522847 0.44746922,14 1.00069463,14 L22.9993054,14 C23.5519738,14 24,13.5561352 24,13 C24,12.4477153 23.5525308,12 22.9993054,12 L1.00069463,12 L1.00069463,12 Z M1.00247329,18 C0.448822582,18 0,18.4438648 0,19 C0,19.5522847 0.455760956,20 1.00247329,20 L10.9975267,20 C11.5511774,20 12,19.5561352 12,19 C12,18.4477153 11.544239,18 10.9975267,18 L1.00247329,18 L1.00247329,18 Z M1.00087166,6 C0.448105505,6 0,6.44386482 0,7 C0,7.55228475 0.444630861,8 1.00087166,8 L14.9991283,8 C15.5518945,8 16,7.55613518 16,7 C16,6.44771525 15.5553691,6 14.9991283,6 L1.00087166,6 L1.00087166,6 Z" id="Rectangle-839" stroke="none"></path>
        </g>
    </g>
</svg>