<?xml version="1.0" encoding="UTF-8" standalone="no"?>
<svg width="24px" height="20px" viewBox="0 0 24 20" version="1.1" xmlns="http://www.w3.org/2000/svg" xmlns:xlink="http://www.w3.org/1999/xlink">
    <!-- Generator: Sketch 44.1 (41455) - http://www.bohemiancoding.com/sketch -->
    <title>text 2</title>
    <desc>Created with Sketch.</desc>
    <defs></defs>
    <g id="Page-2-Copy" stroke="none" stroke-width="1" fill="none" fill-rule="evenodd">
        <g id="192" stroke="#979797" transform="translate(-4.000000, 0.000000)" fill="#95909E">
            <path d="M5.00069463,0 C4.44802625,0 4,0.443864822 4,1 C4,1.55228475 4.44746922,2 5.00069463,2 L26.9993054,2 C27.5519738,2 28,1.55613518 28,1 C28,0.44771525 27.5525308,0 26.9993054,0 L5.00069463,0 L5.00069463,0 Z M5.00069463,12 C4.44802625,12 4,12.4438648 4,13 C4,13.5522847 4.44746922,14 5.00069463,14 L26.9993054,14 C27.5519738,14 28,13.5561352 28,13 C28,12.4477153 27.5525308,12 26.9993054,12 L5.00069463,12 L5.00069463,12 Z M11.0024733,18 C10.4488226,18 10,18.4438648 10,19 C10,19.5522847 10.455761,20 11.0024733,20 L20.9975267,20 C21.5511774,20 22,19.5561352 22,19 C22,18.4477153 21.544239,18 20.9975267,18 L11.0024733,18 L11.0024733,18 Z M9.00087166,6 C8.4481055,6 8,6.44386482 8,7 C8,7.55228475 8.44463086,8 9.00087166,8 L22.9991283,8 C23.5518945,8 24,7.55613518 24,7 C24,6.44771525 23.5553691,6 22.9991283,6 L9.00087166,6 L9.00087166,6 Z" id="Rectangle-839" stroke="none"></path>
        </g>
    </g>
</svg>